<?xml version="1.0" encoding="utf-8" standalone="no"?>
<!DOCTYPE svg PUBLIC "-//W3C//DTD SVG 1.1//EN"
  "http://www.w3.org/Graphics/SVG/1.1/DTD/svg11.dtd">
<svg xmlns:xlink="http://www.w3.org/1999/xlink" width="316.8pt" height="248.4pt" viewBox="0 0 316.8 248.4" xmlns="http://www.w3.org/2000/svg" version="1.1">
 <metadata>
  <rdf:RDF xmlns:dc="http://purl.org/dc/elements/1.1/" xmlns:cc="http://creativecommons.org/ns#" xmlns:rdf="http://www.w3.org/1999/02/22-rdf-syntax-ns#">
   <cc:Work>
    <dc:type rdf:resource="http://purl.org/dc/dcmitype/StillImage"/>
    <dc:format>image/svg+xml</dc:format>
    <dc:creator>
     <cc:Agent>
      <dc:title>Matplotlib v3.11.1, https://matplotlib.org/</dc:title>
     </cc:Agent>
    </dc:creator>
   </cc:Work>
  </rdf:RDF>
 </metadata>
 <defs>
  <style type="text/css">*{stroke-linejoin: round; stroke-linecap: butt}</style>
 </defs>
 <g id="figure_1">
  <g id="patch_1">
   <path d="M 0 248.4 
L 316.8 248.4 
L 316.8 0 
L 0 0 
z
" style="fill: #fafaf8"/>
  </g>
  <g id="axes_1">
   <g id="patch_2">
    <path d="M 50.688 206.172 
L 304.128 206.172 
L 304.128 17.388 
L 50.688 17.388 
z
" style="fill: #fafaf8"/>
   </g>
   <g id="matplotlib.axis_1">
    <g id="text_1">
     <text style="font-size: 12.4px; font-family: 'Arial'; text-anchor: middle; fill: #1a2744" x="177.408" y="226.199539" transform="rotate(-0 177.408 226.199539)">Capability</text>
    </g>
   </g>
   <g id="matplotlib.axis_2">
    <g id="text_2">
     <text style="font-size: 12.4px; font-family: 'Arial'; text-anchor: middle; fill: #1a2744" x="36.078187" y="111.78" transform="rotate(-90 36.078187 111.78)">Safety incidents</text>
    </g>
   </g>
   <g id="line2d_1">
    <path d="M 88.704 172.19088 
L 271.1808 34.37856 
" clip-path="url(#p6b7c34f399)" style="fill: none; stroke: #1a2744; stroke-opacity: 0.6; stroke-width: 2.4; stroke-linecap: round"/>
   </g>
   <g id="line2d_2">
    <defs>
     <path id="m13aa5ad900" d="M 0 4.65 
C 1.233194 4.65 2.416046 4.160047 3.288047 3.288047 
C 4.160047 2.416046 4.65 1.233194 4.65 0 
C 4.65 -1.233194 4.160047 -2.416046 3.288047 -3.288047 
C 2.416046 -4.160047 1.233194 -4.65 0 -4.65 
C -1.233194 -4.65 -2.416046 -4.160047 -3.288047 -3.288047 
C -4.160047 -2.416046 -4.65 -1.233194 -4.65 0 
C -4.65 1.233194 -4.160047 2.416046 -3.288047 3.288047 
C -2.416046 4.160047 -1.233194 4.65 0 4.65 
z
" style="stroke: #fafaf8; stroke-width: 1.1"/>
    </defs>
    <g clip-path="url(#p6b7c34f399)">
     <use xlink:href="#m13aa5ad900" x="134.3232" y="137.7378" style="fill: #b04040; stroke: #fafaf8; stroke-width: 1.1"/>
    </g>
   </g>
   <g id="line2d_3">
    <defs>
     <path id="m82af54b0f9" d="M 0 4.65 
C 1.233194 4.65 2.416046 4.160047 3.288047 3.288047 
C 4.160047 2.416046 4.65 1.233194 4.65 0 
C 4.65 -1.233194 4.160047 -2.416046 3.288047 -3.288047 
C 2.416046 -4.160047 1.233194 -4.65 0 -4.65 
C -1.233194 -4.65 -2.416046 -4.160047 -3.288047 -3.288047 
C -4.160047 -2.416046 -4.65 -1.233194 -4.65 0 
C -4.65 1.233194 -4.160047 2.416046 -3.288047 3.288047 
C -2.416046 4.160047 -1.233194 4.65 0 4.65 
z
" style="stroke: #fafaf8; stroke-width: 1.1"/>
    </defs>
    <g clip-path="url(#p6b7c34f399)">
     <use xlink:href="#m82af54b0f9" x="219.2256" y="73.61679" style="fill: #2b5797; stroke: #fafaf8; stroke-width: 1.1"/>
    </g>
   </g>
   <g id="patch_3">
    <path d="M 50.688 206.172 
L 50.688 17.388 
" style="fill: none; stroke: #1a2744; stroke-linejoin: miter; stroke-linecap: square"/>
   </g>
   <g id="patch_4">
    <path d="M 50.688 206.172 
L 304.128 206.172 
" style="fill: none; stroke: #1a2744; stroke-linejoin: miter; stroke-linecap: square"/>
   </g>
   <g id="text_3">
    <text style="font-weight: 700; font-size: 12px; font-family: 'Arial'; text-anchor: end; fill: #b04040" x="125.3232" y="124.212409" transform="rotate(-0 125.3232 124.212409)">China</text>
   </g>
   <g id="text_4">
    <text style="font-weight: 700; font-size: 12px; font-family: 'Arial'; text-anchor: start; fill: #2b5797" x="229.2256" y="83.751101" transform="rotate(-0 229.2256 83.751101)">US</text>
   </g>
  </g>
 </g>
 <defs>
  <clipPath id="p6b7c34f399">
   <rect x="50.688" y="17.388" width="253.44" height="188.784"/>
  </clipPath>
 </defs>
</svg>
